<?xml version="1.0" encoding="UTF-8"?>
<svg id="_Слой_1" data-name=" Слой 1" xmlns="http://www.w3.org/2000/svg" viewBox="0 0 100 100">
  <defs>
    <style>
      .cls-1 {
        fill: #433d4e;
      }
    </style>
  </defs>
  <g id="_Генеративный_объект_30_-30_" data-name="Генеративный объект (30, -30)">
    <path d="M16.88,84.52c-.09-.26-.43-.23-.62-.3l-1-.35V9.43c.12-.06.12-.13.11-.19l7.3-7.46,1.89.56,36.1,11.65c4.84,1.56,9.08,4.33,12.65,8.05s6.38,8.4,7.73,13.45c.64,2.39,1.03,4.72.93,7.17-.16,3.82-1.77,7.32-4.48,10.01l-2.97,2.93c1.94,1.62,3.52,3.4,4.95,5.45,5.38,7.69,7.83,18.32,2.12,26.38l-.78.96-3.74,3.93-2.73,2.7c-1.72,1.3-3.59,2.1-5.66,2.61-4.08,1-8.3.67-12.34-.61l-39.46-12.5ZM60.83,43.35c-.84-5.04-4.47-9.16-9.36-10.4l-13.03-4.13v7.73s19.87,6.37,19.87,6.37c.85.27,1.58.53,2.52.42ZM63.23,76.94c-.58-5.38-4.18-9.68-9.22-11.25l-15.6-4.92.03,8.65,19.52,6.25c1.77.54,3.39,1.15,5.26,1.27Z"/>
    <path class="cls-1" d="M16.88,84.52l-1.42-.44c-.08-.02-.18.11-.27-.06-.04-.08-.06-.13-.04-.23V9.73c0-.28.04-.3.22-.48.01.06,0,.12-.11.19v74.43s1,.35,1,.35c.19.07.52.04.62.3Z"/>
  </g>
</svg>