<?xml version="1.0" encoding="UTF-8"?>
<svg id="_Слой_1" data-name="Слой 1" xmlns="http://www.w3.org/2000/svg" viewBox="0 0 100 100">
  <path d="M70.22,40.87L30.58,1.22l-6.25,6.25,10.55,10.55-22.84,22.84c-2.62,2.62-2.62,6.78,0,9.4l24.39,24.39c1.29,1.29,3.02,1.95,4.7,1.95s3.41-.67,4.7-1.95l24.39-24.39c2.62-2.62,2.62-6.78,0-9.4M19.89,45.57l21.24-21.24,21.24,21.24M81.04,52.22s-8.87,9.62-8.87,15.52c0,4.88,3.99,8.87,8.87,8.87s8.87-3.99,8.87-8.87c0-5.9-8.87-15.52-8.87-15.52M5.66,89.91h88.69v8.87H5.66v-8.87Z"/>
</svg>