<?xml version="1.0" encoding="UTF-8"?>
<svg id="_Слой_1" data-name="Слой 1" xmlns="http://www.w3.org/2000/svg" viewBox="0 0 100 100">
  <path d="M50,.7C22.77.7.7,22.77.7,50s22.07,49.3,49.3,49.3c2.72,0,4.93-2.21,4.93-4.93v-7.39c0-6.81,5.52-12.32,12.32-12.32h17.25c8.17,0,14.79-6.62,14.79-14.79,0-32.67-22.07-54.23-49.3-54.23V.7ZM22.89,45.07c-4.08,0-7.39-3.31-7.39-7.39s3.31-7.39,7.39-7.39,7.39,3.31,7.39,7.39-3.31,7.39-7.39,7.39ZM37.68,30.28c-4.08,0-7.39-3.31-7.39-7.39s3.31-7.39,7.39-7.39,7.39,3.31,7.39,7.39-3.31,7.39-7.39,7.39ZM59.86,30.28c-4.08,0-7.39-3.31-7.39-7.39s3.31-7.39,7.39-7.39,7.39,3.31,7.39,7.39-3.31,7.39-7.39,7.39ZM77.11,47.54c0,4.08-3.31,7.39-7.39,7.39s-7.39-3.31-7.39-7.39,3.31-7.39,7.39-7.39,7.39,3.31,7.39,7.39Z"/>
</svg>