<?xml version="1.0" encoding="UTF-8"?>
<svg id="_Слой_1" data-name="Слой 1" xmlns="http://www.w3.org/2000/svg" viewBox="0 0 100 100">
  <defs>
    <style>
      .cls-1 {
        isolation: isolate;
      }
    </style>
  </defs>
  <g class="cls-1">
    <path d="M27.79,1.92h38.44c7.61,0,13.2.32,16.77.95,3.57.64,6.56,1.96,8.97,3.97,2.41,2.01,4.15,4.69,5.23,8.03,1.07,3.35,1.05,7.1-.06,11.25-1.21,4.5-3.53,8.64-6.96,12.4-3.44,3.76-7.48,6.58-12.14,8.46,5.4,1.71,9.13,4.61,11.17,8.72,2.05,4.11,2.33,8.94.84,14.5-1.17,4.37-3.33,8.62-6.47,12.76-3.14,4.13-6.8,7.43-10.98,9.9-4.18,2.47-8.93,3.99-14.24,4.56-3.33.35-11.19.57-23.59.66H2.02L27.79,1.92ZM32.67,56.17l-6.89,25.71h17.97c7,0,11.49-.2,13.47-.59,3.03-.52,5.72-1.8,8.08-3.84,2.36-2.03,4-4.76,4.91-8.17.77-2.89.73-5.33-.13-7.35-.86-2.01-2.49-3.48-4.89-4.39s-8.02-1.38-16.85-1.38h-15.68ZM42.91,17.93l-5.96,22.24h12.73c7.56,0,12.29-.11,14.19-.33,3.43-.39,6.35-1.54,8.76-3.44,2.41-1.9,4.04-4.4,4.87-7.51.8-2.97.62-5.39-.52-7.25-1.14-1.86-3.28-2.98-6.41-3.38-1.87-.22-7.37-.33-16.51-.33h-11.15Z"/>
  </g>
</svg>